
<svg xmlns="http://www.w3.org/2000/svg" width="150" height="46" viewBox="0 0 150 46" fill="none">
  <path d="M26.9 11.7h-7.8v23h-4.2v-23H7.1V8.3h19.8v3.4zm10.5 23.4c-2.1 0-4-.5-5.7-1.4a10.1 10.1 0 0 1-3.9-4c-.9-1.7-1.4-3.6-1.4-5.8 0-2.2.5-4.1 1.4-5.8a10.1 10.1 0 0 1 3.9-4c1.7-.9 3.6-1.4 5.7-1.4 2.1 0 4 .5 5.7 1.4a10.1 10.1 0 0 1 3.9 4c.9 1.7 1.4 3.6 1.4 5.8 0 2.2-.5 4.1-1.4 5.8a10.1 10.1 0 0 1-3.9 4c-1.7.9-3.6 1.4-5.7 1.4zm0-3.6c1.4 0 2.6-.3 3.7-1a6.7 6.7 0 0 0 2.5-2.8c.6-1.2.9-2.6.9-4.2 0-1.6-.3-3-.9-4.2a6.7 6.7 0 0 0-2.5-2.8c-1.1-.7-2.3-1-3.7-1s-2.6.3-3.7 1a6.7 6.7 0 0 0-2.5 2.8c-.6 1.2-.9 2.6-.9 4.2 0 1.6.3 3 .9 4.2a6.7 6.7 0 0 0 2.5 2.8c1.1.7 2.3 1 3.7 1zm21.8 3.6c-2.1 0-4-.5-5.7-1.4a10.1 10.1 0 0 1-3.9-4c-.9-1.7-1.4-3.6-1.4-5.8 0-2.2.5-4.1 1.4-5.8a10.1 10.1 0 0 1 3.9-4c1.7-.9 3.6-1.4 5.7-1.4 2.1 0 4 .5 5.7 1.4a10.1 10.1 0 0 1 3.9 4c.9 1.7 1.4 3.6 1.4 5.8 0 2.2-.5 4.1-1.4 5.8a10.1 10.1 0 0 1-3.9 4c-1.7.9-3.6 1.4-5.7 1.4z" fill="#1D4ED8"/>
  <path d="M89.7 11.7h-7.8v23h-4.2v-23h-7.8V8.3h19.8v3.4zm10.5 23.4c-2.1 0-4-.5-5.7-1.4a10.1 10.1 0 0 1-3.9-4c-.9-1.7-1.4-3.6-1.4-5.8 0-2.2.5-4.1 1.4-5.8a10.1 10.1 0 0 1 3.9-4c1.7-.9 3.6-1.4 5.7-1.4 2.1 0 4 .5 5.7 1.4a10.1 10.1 0 0 1 3.9 4c.9 1.7 1.4 3.6 1.4 5.8 0 2.2-.5 4.1-1.4 5.8a10.1 10.1 0 0 1-3.9 4c-1.7.9-3.6 1.4-5.7 1.4z" fill="#1D4ED8"/>
</svg>
